<svg width="21" height="21" viewBox="0 0 21 21" fill="none" xmlns="http://www.w3.org/2000/svg">
<path d="M10.5 0C4.70156 0 0 4.70156 0 10.5C0 16.2984 4.70156 21 10.5 21C16.2984 21 21 16.2984 21 10.5C21 4.70156 16.2984 0 10.5 0ZM14.4141 14.85C13.4625 15.7266 12.1641 16.2422 10.6148 16.2422C8.37188 16.2422 6.43125 14.9555 5.48672 13.0805C5.09766 12.3047 4.875 11.4281 4.875 10.5C4.875 9.57187 5.09766 8.69531 5.48672 7.91953C6.43125 6.04219 8.37188 4.75547 10.6148 4.75547C12.1617 4.75547 13.4602 5.325 14.4563 6.25078L12.8109 7.89844C12.2156 7.32891 11.4586 7.04063 10.6172 7.04063C9.12187 7.04063 7.85625 8.05078 7.40391 9.40781C7.28906 9.75234 7.22344 10.1203 7.22344 10.5C7.22344 10.8797 7.28906 11.2477 7.40391 11.5922C7.85625 12.9492 9.12188 13.9594 10.6148 13.9594C11.3883 13.9594 12.0445 13.7555 12.5578 13.4109C13.1672 13.0031 13.5703 12.3961 13.7039 11.6766H10.6148V9.45469H16.0219C16.0898 9.83203 16.125 10.2234 16.125 10.6289C16.125 12.3797 15.4992 13.8492 14.4141 14.85Z" fill="#DAC0A3"/>
</svg>
